<svg width="212" height="42" viewBox="0 0 212 42" fill="none" xmlns="http://www.w3.org/2000/svg">
<path d="M14.7754 29.3313C10.9838 29.3656 6.26799 30.4513 0 33.4456L0 38.3027C7.20404 35.0113 12.6426 34.0627 17.0859 34.5198C19.2898 34.7484 21.2211 35.3084 22.9866 36.0398C22.4297 36.737 21.8846 37.5598 21.3396 38.5198H27.655L23.3894 31.3541C21.4225 30.4056 19.3253 29.6856 16.8608 29.4342C16.1972 29.3656 15.4982 29.3313 14.7754 29.3313ZM40.9493 29.3313C40.3805 29.3427 39.8355 29.377 39.3023 29.4342C35.2737 29.8456 32.2404 31.4913 29.1598 33.3656V33.3998C28.437 33.1827 27.7024 33.137 26.9914 33.2627L30.1077 38.5198H35.2263C34.5154 37.5827 33.8282 36.7598 33.1291 36.0513C34.9064 35.3084 36.8496 34.7484 39.0653 34.5198C43.5086 34.0627 48.959 35.0113 56.1512 38.3027V33.4456C49.8595 30.4399 45.12 29.3427 41.3166 29.3313H40.9493Z" fill="url(#paint0_linear_42414_111)"/>
<path d="M15.5219 0C15.3797 0 15.2256 -1.74157e-07 15.0834 0.0114283C11.0667 0.102856 6.13765 1.23428 0 3.86284L0 31.6798C7.20404 28.3884 12.6426 27.4399 17.0859 27.897C18.7092 28.057 20.2021 28.4113 21.5766 28.8798L16.2328 19.8742C15.2138 20.2742 14.1119 20.5027 12.9507 20.5027C8.1863 20.5027 4.30109 16.7542 4.30109 12.1599C4.30109 7.56567 8.1863 3.81712 12.9507 3.81712C17.7139 3.81712 21.6003 7.56567 21.6003 12.1599C21.6003 14.9028 20.214 17.3371 18.0812 18.8685L24.8705 30.297C25.6051 30.6627 26.3042 31.0627 26.9914 31.4627V3.69141C24.2425 1.66856 21.0434 0.262856 16.8015 0.0342859C16.3868 0.0114289 15.9603 0 15.5219 0ZM12.9507 5.87425C9.33918 5.87425 6.43387 8.67424 6.43387 12.1599C6.43387 15.6456 9.33918 18.4456 12.9507 18.4456C16.5645 18.4456 19.4675 15.6456 19.4675 12.1599C19.4675 8.67424 16.5645 5.87425 12.9507 5.87425ZM13.2232 7.46282H13.555C10.6994 9.5428 9.43397 12.2742 9.60104 15.4856C6.51325 11.0514 9.75152 7.55424 13.2232 7.46282Z" fill="url(#paint1_linear_42414_111)"/>
<path d="M40.4929 0C40.0545 0 39.6161 0.0114289 39.2014 0.0342859C34.9595 0.262856 31.7722 1.66856 29.0114 3.69141V31.4627C31.8433 29.7941 34.9477 28.297 38.917 27.897C43.3603 27.4399 48.8107 28.3884 56.0029 31.6798V3.86284C49.8771 1.23428 44.948 0.102856 40.9313 0.0114283C40.7772 0.0114283 40.6351 0 40.4929 0Z" fill="url(#paint2_linear_42414_111)"/>
<path d="M41.8119 15.7244V20.3522C41.6379 20.5714 41.3692 20.8094 41.0058 21.066C40.6425 21.3173 40.1742 21.5339 39.6009 21.7157C39.0277 21.8974 38.3342 21.9883 37.5205 21.9883C36.7988 21.9883 36.1412 21.8654 35.5475 21.6194C34.9538 21.3681 34.442 21.0018 34.0121 20.5206C33.5873 20.0394 33.2597 19.4512 33.0294 18.7561C32.7991 18.0557 32.684 17.2563 32.684 16.3581V15.6282C32.684 14.7299 32.794 13.9306 33.0141 13.2301C33.2393 12.5297 33.5591 11.9388 33.9737 11.4576C34.3883 10.9764 34.8821 10.6101 35.4554 10.3588C36.0286 10.1075 36.6658 9.98187 37.3669 9.98187C38.3394 9.98187 39.1378 10.1476 39.7622 10.4791C40.3866 10.8053 40.8625 11.2598 41.1901 11.8426C41.5228 12.4201 41.7275 13.0831 41.8042 13.8316H39.5702C39.5139 13.436 39.4065 13.0911 39.2478 12.797C39.0891 12.5029 38.8614 12.273 38.5645 12.1073C38.2728 11.9415 37.8941 11.8586 37.4283 11.8586C37.0445 11.8586 36.7016 11.9415 36.3996 12.1073C36.1028 12.2677 35.852 12.5056 35.6473 12.8211C35.4426 13.1365 35.2865 13.5269 35.179 13.992C35.0715 14.4572 35.0178 14.9973 35.0178 15.6122V16.3581C35.0178 16.9676 35.0741 17.5076 35.1867 17.9782C35.2993 18.4433 35.4656 18.8363 35.6857 19.1572C35.9109 19.4726 36.1872 19.7106 36.5148 19.871C36.8423 20.0314 37.2236 20.1116 37.6587 20.1116C38.022 20.1116 38.324 20.0795 38.5645 20.0153C38.8102 19.9512 39.0073 19.8736 39.1557 19.7827C39.3092 19.6865 39.4269 19.5956 39.5088 19.5101V17.4408H37.4053V15.7244H41.8119Z" fill="#E1E1E6"/>
<path d="M45.8654 12.1499V20.8279H43.6467V12.1499H45.8654ZM43.5085 9.88817C43.5085 9.55132 43.6211 9.27328 43.8463 9.05405C44.0715 8.83483 44.3735 8.72522 44.7522 8.72522C45.1258 8.72522 45.4252 8.83483 45.6504 9.05405C45.8807 9.27328 45.9959 9.55132 45.9959 9.88817C45.9959 10.225 45.8807 10.5031 45.6504 10.7223C45.4252 10.9415 45.1258 11.0511 44.7522 11.0511C44.3735 11.0511 44.0715 10.9415 43.8463 10.7223C43.6211 10.5031 43.5085 10.225 43.5085 9.88817Z" fill="#E1E1E6"/>
<path d="M51.7613 13.1499V14.7861H46.9248V13.1499H51.7613ZM48.1224 11.0085H50.3334V19.2133C50.3334 19.4646 50.3641 19.6571 50.4255 19.7908C50.4921 19.9244 50.5893 20.018 50.7172 20.0715C50.8452 20.1196 51.0064 20.1437 51.2009 20.1437C51.3391 20.1437 51.4619 20.1383 51.5694 20.1276C51.682 20.1116 51.7767 20.0955 51.8534 20.0795L51.8611 21.7798C51.6718 21.844 51.467 21.8948 51.247 21.9322C51.0269 21.9696 50.7838 21.9883 50.5176 21.9883C50.0314 21.9883 49.6066 21.9055 49.2433 21.7397C48.885 21.5686 48.6086 21.2959 48.4141 20.9216C48.2197 20.5474 48.1224 20.0554 48.1224 19.4459V11.0085Z" fill="#E1E1E6"/>
<path d="M82.472 29.0133V33.6885H67.0259V29.0133H82.472ZM68.9791 4.59836V33.6885H63V4.59836H68.9791ZM80.4591 16.4462V21.0015H67.0259V16.4462H80.4591ZM82.4521 4.59836V9.29355H67.0259V4.59836H82.4521Z" fill="url(#paint3_linear_42414_111)"/>
<path d="M90.225 12.0707L93.7925 18.644L97.4597 12.0707H103.578L97.4797 22.6399L103.857 33.6885H97.7188L93.8324 26.7357L89.946 33.6885H83.8074L90.1851 22.6399L84.0864 12.0707H90.225Z" fill="url(#paint4_linear_42414_111)"/>
<path d="M112.109 16.2264V42H106.369V12.0707H111.69L112.109 16.2264ZM125.761 22.6399V23.0594C125.761 24.6311 125.575 26.0897 125.203 27.4349C124.844 28.7802 124.313 29.9524 123.608 30.9513C122.904 31.937 122.027 32.7095 120.978 33.269C119.941 33.8151 118.745 34.0881 117.39 34.0881C116.075 34.0881 114.932 33.8217 113.962 33.2889C112.992 32.7561 112.175 32.0102 111.511 31.0512C110.86 30.0789 110.335 28.9534 109.936 27.6747C109.538 26.396 109.232 25.0241 109.019 23.5589V22.46C109.232 20.8883 109.538 19.4498 109.936 18.1445C110.335 16.8258 110.86 15.687 111.511 14.728C112.175 13.7556 112.986 13.0031 113.942 12.4703C114.912 11.9375 116.048 11.6711 117.35 11.6711C118.719 11.6711 119.921 11.9308 120.958 12.4503C122.007 12.9698 122.884 13.7157 123.589 14.688C124.306 15.6603 124.844 16.8192 125.203 18.1644C125.575 19.5097 125.761 21.0015 125.761 22.6399ZM120.001 23.0594V22.6399C120.001 21.7208 119.921 20.875 119.762 20.1025C119.616 19.3166 119.377 18.6306 119.044 18.0446C118.726 17.4585 118.3 17.0056 117.769 16.686C117.251 16.353 116.62 16.1865 115.875 16.1865C115.092 16.1865 114.421 16.313 113.862 16.5661C113.318 16.8192 112.873 17.1855 112.527 17.665C112.182 18.1445 111.923 18.7172 111.75 19.3832C111.577 20.0492 111.471 20.8017 111.431 21.6409V24.418C111.497 25.4037 111.683 26.2894 111.989 27.0753C112.295 27.8478 112.766 28.4606 113.404 28.9134C114.042 29.3663 114.879 29.5927 115.915 29.5927C116.673 29.5927 117.31 29.4262 117.829 29.0932C118.347 28.7469 118.765 28.2741 119.084 27.6747C119.416 27.0753 119.649 26.3827 119.782 25.5968C119.928 24.811 120.001 23.9652 120.001 23.0594Z" fill="url(#paint5_linear_42414_111)"/>
<path d="M135.387 3V33.6885H129.627V3H135.387Z" fill="url(#paint6_linear_42414_111)"/>
<path d="M139.214 23.0994V22.6798C139.214 21.0948 139.44 19.6363 139.892 18.3043C140.343 16.959 141.001 15.7935 141.865 14.8079C142.728 13.8222 143.791 13.0564 145.054 12.5102C146.316 11.9508 147.764 11.6711 149.398 11.6711C151.033 11.6711 152.488 11.9508 153.763 12.5102C155.039 13.0564 156.108 13.8222 156.972 14.8079C157.849 15.7935 158.513 16.959 158.965 18.3043C159.417 19.6363 159.643 21.0948 159.643 22.6798V23.0994C159.643 24.6711 159.417 26.1296 158.965 27.4749C158.513 28.8069 157.849 29.9723 156.972 30.9713C156.108 31.957 155.045 32.7228 153.783 33.269C152.521 33.8151 151.073 34.0881 149.438 34.0881C147.804 34.0881 146.349 33.8151 145.074 33.269C143.811 32.7228 142.742 31.957 141.865 30.9713C141.001 29.9723 140.343 28.8069 139.892 27.4749C139.44 26.1296 139.214 24.6711 139.214 23.0994ZM144.954 22.6798V23.0994C144.954 24.0051 145.034 24.8509 145.193 25.6368C145.353 26.4226 145.605 27.1153 145.951 27.7147C146.309 28.3007 146.774 28.7602 147.346 29.0932C147.917 29.4262 148.615 29.5927 149.438 29.5927C150.236 29.5927 150.92 29.4262 151.491 29.0932C152.063 28.7602 152.521 28.3007 152.866 27.7147C153.212 27.1153 153.464 26.4226 153.624 25.6368C153.796 24.8509 153.883 24.0051 153.883 23.0994V22.6798C153.883 21.8007 153.796 20.9749 153.624 20.2024C153.464 19.4165 153.205 18.7239 152.846 18.1245C152.501 17.5118 152.043 17.0323 151.471 16.686C150.9 16.3397 150.209 16.1665 149.398 16.1665C148.588 16.1665 147.897 16.3397 147.326 16.686C146.768 17.0323 146.309 17.5118 145.951 18.1245C145.605 18.7239 145.353 19.4165 145.193 20.2024C145.034 20.9749 144.954 21.8007 144.954 22.6798Z" fill="url(#paint7_linear_42414_111)"/>
<path d="M168.91 16.7859V33.6885H163.17V12.0707H168.572L168.91 16.7859ZM175.408 11.9308L175.308 17.2654C175.029 17.2254 174.69 17.1921 174.292 17.1655C173.906 17.1255 173.554 17.1055 173.235 17.1055C172.425 17.1055 171.721 17.2121 171.123 17.4252C170.538 17.625 170.046 17.9247 169.648 18.3243C169.262 18.7239 168.97 19.21 168.771 19.7828C168.585 20.3555 168.479 21.0082 168.452 21.7408L167.296 21.3811C167.296 19.9826 167.436 18.6972 167.715 17.5251C167.994 16.3397 168.399 15.3074 168.93 14.4283C169.475 13.5492 170.139 12.8699 170.923 12.3904C171.707 11.9109 172.604 11.6711 173.614 11.6711C173.933 11.6711 174.258 11.6977 174.591 11.751C174.923 11.791 175.195 11.8509 175.408 11.9308Z" fill="url(#paint8_linear_42414_111)"/>
<path d="M187.645 34.0881C185.971 34.0881 184.469 33.8217 183.141 33.2889C181.812 32.7428 180.683 31.9903 179.753 31.0312C178.836 30.0722 178.132 28.96 177.64 27.6947C177.148 26.416 176.902 25.0574 176.902 23.6189V22.8197C176.902 21.1814 177.135 19.6829 177.6 18.3243C178.065 16.9657 178.729 15.7869 179.593 14.7879C180.47 13.7889 181.533 13.0231 182.782 12.4903C184.031 11.9442 185.439 11.6711 187.007 11.6711C188.535 11.6711 189.89 11.9242 191.073 12.4303C192.256 12.9365 193.245 13.6557 194.043 14.5881C194.853 15.5205 195.464 16.6393 195.876 17.9447C196.288 19.2367 196.494 20.6752 196.494 22.2602V24.6578H179.354V20.8217H190.854V20.3822C190.854 19.583 190.708 18.8704 190.415 18.2444C190.136 17.605 189.711 17.0989 189.14 16.7259C188.568 16.353 187.838 16.1665 186.947 16.1665C186.19 16.1665 185.539 16.333 184.994 16.666C184.449 16.999 184.004 17.4652 183.659 18.0645C183.327 18.6639 183.074 19.3699 182.902 20.1824C182.742 20.9816 182.662 21.8607 182.662 22.8197V23.6189C182.662 24.4846 182.782 25.2838 183.021 26.0164C183.274 26.749 183.626 27.3817 184.077 27.9144C184.542 28.4472 185.101 28.8601 185.752 29.1532C186.416 29.4462 187.167 29.5927 188.004 29.5927C189.04 29.5927 190.003 29.3929 190.894 28.9933C191.797 28.5804 192.574 27.9611 193.226 27.1352L196.016 30.1721C195.564 30.8248 194.946 31.4508 194.162 32.0502C193.392 32.6496 192.462 33.1424 191.372 33.5287C190.282 33.9016 189.04 34.0881 187.645 34.0881Z" fill="url(#paint9_linear_42414_111)"/>
<path d="M205.503 16.7859V33.6885H199.763V12.0707H205.164L205.503 16.7859ZM212 11.9308L211.9 17.2654C211.621 17.2254 211.283 17.1921 210.884 17.1655C210.499 17.1255 210.146 17.1055 209.828 17.1055C209.017 17.1055 208.313 17.2121 207.715 17.4252C207.13 17.625 206.639 17.9247 206.24 18.3243C205.855 18.7239 205.562 19.21 205.363 19.7828C205.177 20.3555 205.071 21.0082 205.044 21.7408L203.888 21.3811C203.888 19.9826 204.028 18.6972 204.307 17.5251C204.586 16.3397 204.991 15.3074 205.523 14.4283C206.067 13.5492 206.732 12.8699 207.516 12.3904C208.3 11.9109 209.196 11.6711 210.206 11.6711C210.525 11.6711 210.851 11.6977 211.183 11.751C211.515 11.791 211.787 11.8509 212 11.9308Z" fill="url(#paint10_linear_42414_111)"/>
<defs>
<linearGradient id="paint0_linear_42414_111" x1="28" y1="22" x2="28" y2="54" gradientUnits="userSpaceOnUse">
<stop stop-color="#00B37E"/>
<stop offset="1" stop-color="#00B37E" stop-opacity="0"/>
</linearGradient>
<linearGradient id="paint1_linear_42414_111" x1="-12" y1="23" x2="36" y2="23" gradientUnits="userSpaceOnUse">
<stop stop-color="#A5A5A5"/>
<stop offset="0.632917" stop-color="#E1E1E1"/>
<stop offset="0.875033" stop-color="#888888"/>
</linearGradient>
<linearGradient id="paint2_linear_42414_111" x1="73" y1="16" x2="23.5" y2="16" gradientUnits="userSpaceOnUse">
<stop offset="0.211605" stop-color="#0C6F54"/>
<stop offset="0.79115" stop-color="#09B788" stop-opacity="0.510028"/>
<stop offset="1" stop-color="#A4C2BA" stop-opacity="0"/>
</linearGradient>
<linearGradient id="paint3_linear_42414_111" x1="138" y1="-21.5" x2="138" y2="60" gradientUnits="userSpaceOnUse">
<stop stop-color="white"/>
<stop offset="1" stop-color="#989898"/>
</linearGradient>
<linearGradient id="paint4_linear_42414_111" x1="138" y1="-21.5" x2="138" y2="60" gradientUnits="userSpaceOnUse">
<stop stop-color="white"/>
<stop offset="1" stop-color="#989898"/>
</linearGradient>
<linearGradient id="paint5_linear_42414_111" x1="138" y1="-21.5" x2="138" y2="60" gradientUnits="userSpaceOnUse">
<stop stop-color="white"/>
<stop offset="1" stop-color="#989898"/>
</linearGradient>
<linearGradient id="paint6_linear_42414_111" x1="138" y1="-21.5" x2="138" y2="60" gradientUnits="userSpaceOnUse">
<stop stop-color="white"/>
<stop offset="1" stop-color="#989898"/>
</linearGradient>
<linearGradient id="paint7_linear_42414_111" x1="138" y1="-21.5" x2="138" y2="60" gradientUnits="userSpaceOnUse">
<stop stop-color="white"/>
<stop offset="1" stop-color="#989898"/>
</linearGradient>
<linearGradient id="paint8_linear_42414_111" x1="138" y1="-21.5" x2="138" y2="60" gradientUnits="userSpaceOnUse">
<stop stop-color="white"/>
<stop offset="1" stop-color="#989898"/>
</linearGradient>
<linearGradient id="paint9_linear_42414_111" x1="138" y1="-21.5" x2="138" y2="60" gradientUnits="userSpaceOnUse">
<stop stop-color="white"/>
<stop offset="1" stop-color="#989898"/>
</linearGradient>
<linearGradient id="paint10_linear_42414_111" x1="138" y1="-21.5" x2="138" y2="60" gradientUnits="userSpaceOnUse">
<stop stop-color="white"/>
<stop offset="1" stop-color="#989898"/>
</linearGradient>
</defs>
</svg>
